<?xml version="1.0" standalone="no"?>
<!DOCTYPE svg PUBLIC "-//W3C//DTD SVG 20010904//EN"
 "http://www.w3.org/TR/2001/REC-SVG-20010904/DTD/svg10.dtd">
<svg version="1.0" xmlns="http://www.w3.org/2000/svg"
 width="1190.000000pt" height="331.000000pt" viewBox="0 0 1190.000000 331.000000"
 preserveAspectRatio="xMidYMid meet">
<metadata>
Created by potrace 1.16, written by Peter Selinger 2001-2019
</metadata>
<g transform="translate(0.000000,331.000000) scale(0.100000,-0.100000)"
fill="#000000" stroke="none">
<path d="M2161 2325 c-2 -39 -2 -744 0 -770 1 -11 5 -5 10 15 10 43 10 678 -1
740 -6 35 -8 39 -9 15z"/>
<path d="M736 2294 c-9 -65 -6 -668 4 -729 5 -35 8 -41 9 -20 3 68 1 788 -2
792 -2 2 -7 -17 -11 -43z"/>
<path d="M2897 2154 c-33 -8 -66 -21 -74 -29 -8 -8 -18 -15 -23 -15 -8 0 -68
-58 -127 -123 -13 -14 -23 -36 -23 -50 0 -13 -6 -30 -14 -36 -12 -10 -27 -95
-27 -156 0 -54 15 -136 27 -146 8 -6 14 -18 14 -27 0 -16 75 -92 91 -92 6 0
31 -10 57 -21 38 -18 60 -21 122 -17 41 3 86 11 100 18 14 8 36 15 50 16 13 2
30 10 36 19 6 8 15 15 20 15 13 0 64 53 64 67 0 7 4 13 10 13 12 0 24 64 16
92 -3 13 -17 35 -31 51 -25 26 -30 27 -124 27 -94 0 -98 -1 -124 -28 -21 -22
-24 -31 -15 -40 19 -19 76 -14 98 8 29 29 100 28 127 -2 12 -13 23 -31 25 -40
4 -24 -41 -94 -69 -107 -13 -6 -23 -15 -23 -21 0 -5 -11 -10 -25 -10 -15 0
-40 -8 -58 -17 -44 -23 -144 -23 -177 0 -13 9 -33 17 -43 17 -15 0 -36 19
-104 92 -13 14 -16 41 -16 132 1 102 3 118 22 142 11 15 21 35 21 45 0 11 4
19 9 19 5 0 13 9 16 20 8 25 78 100 93 100 6 0 12 5 14 11 4 13 116 59 143 59
11 0 34 -9 50 -20 17 -11 36 -20 43 -20 7 0 20 -7 28 -15 22 -22 54 -19 54 4
0 27 -42 51 -107 61 -30 5 -62 11 -71 13 -10 3 -43 -2 -75 -9z"/>
<path d="M9393 2153 c-10 -3 -13 -36 -13 -118 0 -139 -1 -140 -127 -133 -72 4
-83 2 -81 -11 4 -18 41 -28 110 -30 73 -2 123 -40 144 -110 10 -31 20 -96 23
-146 4 -49 13 -101 20 -115 8 -14 17 -31 21 -39 9 -21 23 -23 45 -7 14 10 17
17 8 27 -5 8 -13 33 -16 57 -3 24 -12 51 -21 61 -9 10 -16 28 -16 42 -1 13 -7
35 -15 49 -17 30 -20 126 -3 136 6 4 66 11 132 15 67 4 122 8 124 8 1 1 2 13
2 27 0 23 -3 25 -22 19 -13 -5 -61 -10 -107 -12 -83 -5 -84 -4 -117 28 -19 18
-34 40 -34 50 0 9 -7 22 -15 29 -11 9 -15 33 -15 91 0 78 -4 90 -27 82z"/>
<path d="M4747 2143 c-10 -10 -8 -93 4 -197 13 -104 8 -146 -19 -146 -9 0 -34
-9 -55 -20 -20 -11 -48 -20 -61 -20 -14 0 -28 -5 -31 -10 -4 -6 -21 -17 -38
-25 -53 -24 -117 -74 -117 -90 0 -4 -8 -13 -17 -20 -11 -8 -18 -32 -21 -73 -4
-56 -2 -63 23 -86 16 -15 33 -25 39 -25 6 1 19 -1 29 -6 30 -13 206 16 221 37
6 8 16 13 23 11 7 -3 18 5 25 16 16 26 58 28 59 4 1 -10 1 -23 0 -29 -2 -17
26 -37 40 -28 14 8 5 113 -12 146 -6 11 -14 68 -18 127 -4 59 -10 112 -14 118
-8 12 -30 223 -28 269 1 31 -19 60 -32 47z m-17 -415 c53 -36 57 -50 33 -100
-20 -39 -49 -71 -109 -121 -31 -25 -129 -39 -176 -25 -37 11 -38 12 -38 59 0
44 4 52 50 99 28 27 57 50 64 50 8 0 19 7 26 15 7 8 22 15 34 15 11 0 32 7 46
14 34 19 33 19 70 -6z"/>
<path d="M6120 2060 c-11 -11 -26 -20 -33 -20 -16 0 -57 -41 -57 -57 0 -6 -7
-13 -15 -17 -8 -3 -15 -14 -15 -23 0 -10 -7 -29 -17 -42 -22 -33 -36 -94 -36
-166 0 -66 19 -155 34 -155 5 0 9 -6 9 -14 0 -21 66 -80 118 -107 42 -21 60
-24 163 -23 111 0 118 2 165 30 27 17 51 39 53 49 3 16 -2 17 -50 11 -30 -4
-64 -14 -77 -22 -38 -25 -137 -36 -197 -24 -76 16 -145 85 -168 169 -15 55
-16 67 -2 132 8 39 22 80 30 92 8 12 15 30 15 40 0 25 89 112 129 125 49 17
56 15 94 -18 39 -34 47 -36 47 -16 0 8 -16 28 -35 45 -30 26 -44 31 -85 31
-37 0 -55 -5 -70 -20z"/>
<path d="M7184 2065 c-10 -24 4 -122 21 -155 10 -19 15 -59 15 -117 0 -49 7
-110 15 -137 8 -27 15 -78 15 -113 0 -72 21 -133 46 -133 12 0 15 6 10 23 -3
12 -9 74 -12 137 -3 63 -12 137 -20 164 -8 27 -14 83 -14 124 0 44 -6 87 -15
105 -8 18 -15 50 -17 72 -2 29 -8 41 -21 43 -9 2 -20 -4 -23 -13z"/>
<path d="M8370 2012 c0 -39 5 -73 12 -80 6 -6 15 -62 19 -124 4 -62 15 -142
23 -178 9 -36 16 -88 16 -116 0 -59 19 -106 40 -101 8 2 13 10 11 18 -3 8 -8
73 -12 144 -3 72 -11 144 -17 161 -5 17 -13 72 -17 123 -4 51 -13 105 -21 120
-8 14 -14 43 -14 64 0 30 -4 37 -20 37 -18 0 -20 -7 -20 -68z"/>
<path d="M8195 1968 c-3 -18 -1 -55 5 -83 7 -27 12 -59 12 -70 1 -39 -26 -195
-33 -195 -4 0 -13 -16 -19 -35 -6 -19 -16 -35 -21 -35 -5 0 -9 -6 -9 -13 0
-13 -76 -57 -99 -57 -15 0 -111 101 -111 117 0 8 -7 28 -16 45 -12 22 -16 59
-16 139 1 60 3 118 7 129 8 25 -13 27 -31 3 -18 -25 -18 -174 1 -246 8 -32 15
-68 15 -81 0 -13 6 -29 14 -35 8 -7 17 -23 20 -36 3 -13 17 -36 31 -51 23 -25
32 -27 98 -27 64 1 77 4 100 25 15 14 27 32 27 41 0 8 7 17 15 21 8 3 15 17
15 30 0 14 6 29 14 33 17 9 36 124 43 249 3 63 0 90 -14 122 -21 50 -40 54
-48 10z"/>
<path d="M3986 1925 c-8 -8 -19 -15 -24 -15 -16 0 -92 -84 -92 -101 0 -9 -7
-19 -15 -23 -8 -3 -15 -15 -15 -26 0 -11 -8 -33 -17 -47 -13 -20 -18 -47 -18
-101 0 -59 4 -76 18 -86 9 -7 17 -21 17 -30 0 -9 8 -20 18 -23 9 -4 20 -11 24
-17 3 -5 34 -12 67 -14 47 -3 69 0 104 17 24 11 48 21 54 21 6 0 13 7 17 15 3
8 10 15 17 15 6 0 19 10 30 23 l19 22 20 -25 c11 -14 24 -30 30 -37 5 -7 10
-19 10 -26 0 -22 35 -61 48 -53 13 8 6 65 -14 114 -7 17 -16 88 -20 157 -5 86
-11 129 -20 136 -8 6 -14 20 -14 31 0 10 -16 34 -35 53 -33 34 -36 35 -114 35
-57 0 -84 -4 -95 -15z m179 -64 c25 -38 27 -45 23 -133 -1 -53 -8 -100 -15
-108 -50 -61 -87 -100 -96 -100 -6 0 -18 -7 -28 -16 -11 -10 -38 -16 -71 -17
-48 -1 -58 3 -91 33 -36 32 -37 36 -37 99 1 42 6 73 15 85 8 11 15 26 15 35 0
16 8 26 74 94 56 56 75 66 137 66 43 1 48 -2 74 -38z"/>
<path d="M5027 1902 c-20 -21 -37 -46 -37 -55 0 -9 -9 -34 -20 -54 -27 -51
-29 -186 -3 -223 10 -14 18 -31 20 -39 1 -8 20 -33 43 -55 l40 -41 145 0 c123
1 148 3 162 18 33 33 5 40 -104 28 -155 -18 -243 9 -243 74 0 22 4 25 38 25
20 0 51 9 67 20 17 11 38 20 48 20 9 0 17 7 17 15 0 8 7 15 15 15 9 0 18 8 22
18 3 9 13 25 21 34 21 25 33 101 23 153 -13 68 -39 84 -136 85 -81 0 -81 0
-118 -38z m189 -23 c27 -30 27 -135 -1 -166 -11 -13 -25 -23 -33 -23 -7 0 -15
-7 -18 -15 -5 -11 -22 -15 -65 -15 -71 0 -74 5 -73 99 1 59 3 66 35 96 41 38
53 43 100 44 25 1 42 -6 55 -20z"/>
<path d="M6737 1926 c-8 -9 -20 -16 -24 -16 -13 0 -81 -82 -104 -125 -10 -19
-19 -43 -19 -54 0 -10 -7 -32 -15 -47 -19 -37 -19 -113 0 -138 8 -11 15 -30
15 -43 0 -15 6 -23 16 -23 9 0 22 -8 29 -17 19 -25 120 -30 170 -8 22 10 46
19 54 21 8 1 30 18 50 38 35 34 37 35 63 19 15 -10 30 -28 33 -42 11 -46 30
-81 43 -81 15 0 6 125 -15 184 -7 21 -13 75 -13 120 0 62 -5 90 -20 119 -11
20 -20 44 -20 52 0 8 -7 15 -15 15 -7 0 -18 8 -24 18 -14 25 -180 32 -204 8z
m177 -51 c25 -23 26 -28 26 -133 0 -84 -3 -112 -15 -122 -8 -6 -17 -21 -21
-33 -14 -46 -108 -97 -180 -100 -56 -1 -79 14 -108 70 -20 39 -20 72 -2 115 8
18 17 44 20 58 7 32 67 103 119 141 53 39 122 40 161 4z"/>
<path d="M7520 1918 c-47 -24 -90 -61 -90 -78 0 -5 -7 -13 -15 -18 -9 -4 -19
-32 -25 -64 -23 -147 35 -291 129 -318 17 -5 57 -6 88 -3 83 9 132 49 147 121
6 25 4 32 -8 32 -9 0 -21 -9 -28 -20 -7 -11 -21 -20 -30 -20 -10 0 -18 -4 -18
-9 0 -13 -61 -48 -97 -55 -45 -10 -80 9 -114 61 -29 45 -30 53 -26 123 2 41
11 89 20 105 9 17 18 38 21 47 7 23 79 68 109 68 13 0 32 -7 43 -15 25 -19 54
-19 54 0 0 9 -8 19 -17 22 -10 4 -22 13 -28 20 -19 24 -68 25 -115 1z"/>
<path d="M8756 1925 c-8 -8 -19 -15 -24 -15 -13 0 -92 -87 -92 -100 0 -7 -7
-18 -15 -26 -8 -9 -15 -25 -15 -37 0 -12 -7 -31 -15 -41 -21 -28 -21 -159 0
-180 8 -8 15 -21 15 -30 0 -8 20 -25 44 -37 37 -18 55 -21 103 -16 57 6 143
41 143 58 0 5 7 9 15 9 8 0 19 9 25 20 6 11 17 20 24 20 15 0 54 -58 71 -105
5 -16 18 -31 27 -33 15 -3 16 4 11 55 -3 32 -12 68 -19 80 -10 15 -14 56 -14
131 0 80 -4 113 -15 128 -8 10 -15 27 -15 37 0 10 -18 36 -40 58 -39 39 -40
39 -119 39 -57 0 -84 -4 -95 -15z m158 -31 c9 -3 16 -12 16 -19 0 -7 7 -18 15
-25 12 -10 15 -37 15 -121 0 -60 -4 -109 -9 -109 -5 0 -19 -15 -32 -34 -46
-68 -157 -118 -214 -96 -13 5 -37 22 -54 39 -27 26 -31 38 -31 81 0 31 8 64
20 87 11 21 20 44 20 51 0 25 101 129 140 145 20 8 95 8 114 1z"/>
<path d="M3591 1863 c-35 -14 -101 -98 -101 -129 0 -31 -37 -74 -65 -74 -24 0
-35 22 -35 72 0 14 -5 28 -11 30 -7 2 -17 19 -23 38 -6 20 -18 35 -26 35 -12
0 -14 -11 -11 -50 2 -27 9 -59 17 -70 8 -10 14 -29 14 -42 0 -12 7 -28 15 -37
8 -8 15 -21 15 -29 0 -8 9 -26 20 -40 11 -14 20 -32 20 -41 0 -24 91 -109 104
-96 6 6 9 66 7 153 -2 133 -1 144 18 161 12 11 21 25 21 33 0 20 96 18 108 -3
5 -9 18 -14 33 -12 32 4 38 42 10 60 -12 7 -21 18 -21 24 0 20 -73 31 -109 17z"/>
<path d="M10010 1849 c-19 -10 -41 -19 -48 -19 -30 0 -132 -105 -132 -136 0
-12 -4 -25 -9 -28 -21 -14 -20 -84 2 -147 21 -60 25 -65 65 -78 51 -16 165 -7
186 15 8 8 19 14 24 14 19 0 92 78 92 98 0 11 7 22 15 26 12 4 15 24 15 94 0
67 -4 93 -15 102 -8 7 -15 18 -15 24 0 7 -10 22 -23 34 -30 29 -107 29 -157 1z
m139 -51 c29 -30 31 -39 31 -104 0 -55 -4 -73 -15 -78 -8 -3 -15 -12 -15 -20
0 -8 -25 -37 -56 -64 -42 -38 -65 -51 -98 -55 -67 -9 -109 7 -129 48 -21 45
-21 63 0 106 17 35 138 159 155 159 6 0 21 9 35 20 36 28 57 25 92 -12z"/>
<path d="M10573 1850 c-10 -11 -23 -20 -30 -20 -7 0 -13 -7 -13 -15 0 -9 -7
-18 -15 -21 -8 -3 -17 -21 -21 -40 -3 -19 -10 -34 -14 -34 -4 0 -13 -13 -19
-30 -7 -23 -16 -30 -35 -30 -22 0 -26 5 -26 29 0 15 -9 40 -20 54 -11 14 -20
31 -20 39 0 26 -26 52 -45 44 -14 -5 -16 -9 -7 -18 7 -7 12 -29 12 -49 0 -21
7 -44 15 -53 8 -8 15 -23 15 -33 0 -10 14 -43 30 -73 16 -30 36 -70 44 -87 8
-18 20 -33 25 -33 6 0 11 -6 11 -14 0 -22 61 -50 72 -34 11 16 0 128 -14 145
-6 7 -8 25 -5 40 31 154 42 172 108 173 33 0 49 -5 53 -15 3 -8 17 -15 32 -15
25 0 26 2 20 33 -13 68 -112 105 -153 57z"/>
<path d="M1047 1783 c-4 -6 21 -36 54 -68 l60 -58 -60 -61 c-34 -34 -61 -65
-61 -69 0 -20 30 -2 69 43 58 66 82 66 136 0 36 -44 65 -63 65 -42 0 4 -25 32
-55 62 -30 30 -55 59 -55 64 0 5 25 33 55 62 51 50 67 74 47 74 -4 0 -30 -22
-57 -50 -30 -30 -58 -50 -71 -50 -14 0 -41 20 -72 52 -27 28 -52 47 -55 41z"/>
</g>
</svg>
